<?xml version="1.0" encoding="utf-8"?>
<!-- Generator: Adobe Illustrator 24.2.0, SVG Export Plug-In . SVG Version: 6.00 Build 0)  -->
<svg version="1.1" id="Layer_1" xmlns="http://www.w3.org/2000/svg" xmlns:xlink="http://www.w3.org/1999/xlink" x="0px" y="0px"
	 viewBox="0 0 50 50" style="enable-background:new 0 0 50 50;" xml:space="preserve">
<style type="text/css">
	.st0{fill:none;stroke:#F05A26;stroke-width:2.6367;stroke-miterlimit:10;}
	.st1{fill:#F05A26;}
	.st2{fill:#FFFFFF;}
	.st3{fill:none;stroke:#F05A26;stroke-width:4;stroke-miterlimit:10;}
	.st4{fill:none;stroke:#FFFFFF;stroke-width:0.5;stroke-miterlimit:10;}
	.st5{fill:none;stroke:#FC917F;stroke-width:2.885;stroke-miterlimit:10;}
	.st6{fill:none;}
	.st7{fill:#FC917F;}
	.st8{fill:#FB8369;}
	.st9{fill:#FFABAB;}
	.st10{fill:#FE9E95;}
	.st11{fill:#F97653;}
	.st12{fill:#F26131;}
	.st13{fill:#F4683D;}
	.st14{fill:#F76F48;}
	.st15{fill:#989898;}
</style>
<g>
	<g>
		<g>
			<path class="st7" d="M45,12.7c-2.9,0.2-5.5,1.1-8.5,5.3c2.2,1.6,6.9,7.2,6.9,7.2C46.9,20.1,47.2,17.8,45,12.7z"/>
			<path class="st7" d="M5,12.7c2.9,0.2,5.5,1.1,8.5,5.3c-2.2,1.6-6.9,7.2-6.9,7.2C3.1,20.1,2.8,17.8,5,12.7z"/>
		</g>
		<g>
			<polygon class="st9" points="24.9,37.2 24.9,37.2 24.9,37.2 			"/>
			<rect x="24.9" y="37.2" transform="matrix(0.5841 -0.8117 0.8117 0.5841 -19.8348 35.7227)" class="st9" width="0" height="0"/>
			<polygon class="st9" points="24.9,37.3 25,37.3 24.9,37.2 24.9,37.2 			"/>
			<path class="st8" d="M43.9,23.4c-2.9-3.9-7-7-11.8-8.5l-7.2,22.3L43.9,23.4z"/>
			<polygon class="st9" points="25,37.3 24.9,37.2 25,37.3 			"/>
			<polygon class="st9" points="24.9,37.2 24.9,37.2 24.9,37.2 			"/>
			<path class="st9" d="M24.9,37.2L24.9,37.2L24.9,37.2L24.9,37.2L6,23.5c-2.8,3.9-4.5,8.6-4.5,13.8L24.9,37.2L24.9,37.2z"/>
			<path class="st11" d="M24.9,37.2L24.9,37.2L24.9,37.2L24.9,37.2L24.9,37.2L24.9,37.2L24.9,37.2L24.9,37.2L24.9,37.2L24.9,37.2
				L1.5,37.3c0,0,0,0,0,0L24.9,37.2l23.6,0.1c0-5.2-1.7-10-4.6-13.9L24.9,37.2z"/>
			<path class="st7" d="M24.9,37.2l7.2-22.3c-2.3-0.7-4.7-1.1-7.2-1.1c-2.6,0-5,0.4-7.3,1.2L24.9,37.2L24.9,37.2z"/>
			<path class="st10" d="M24.9,37.2L17.7,15c-4.7,1.6-8.8,4.6-11.7,8.5L24.9,37.2L24.9,37.2z"/>
		</g>
	</g>
</g>
</svg>
