<?xml version="1.0" encoding="utf-8"?>
<!-- Generator: Adobe Illustrator 24.2.0, SVG Export Plug-In . SVG Version: 6.00 Build 0)  -->
<svg version="1.1" id="Layer_1" xmlns="http://www.w3.org/2000/svg" xmlns:xlink="http://www.w3.org/1999/xlink" x="0px" y="0px"
	 viewBox="0 0 99.5 73.4" style="enable-background:new 0 0 99.5 73.4;" xml:space="preserve">
<style type="text/css">
	.st0{fill:none;stroke:#F05A26;stroke-width:2.6367;stroke-miterlimit:10;}
	.st1{fill:#F05A26;}
	.st2{fill:#FFFFFF;}
	.st3{fill:none;stroke:#F05A26;stroke-width:4;stroke-miterlimit:10;}
	.st4{fill:none;stroke:#FFFFFF;stroke-width:0.5;stroke-miterlimit:10;}
	.st5{fill:none;stroke:#FC917F;stroke-width:2.885;stroke-miterlimit:10;}
	.st6{fill:none;}
	.st7{fill:#FC917F;}
	.st8{fill:#FB8369;}
	.st9{fill:#FFABAB;}
	.st10{fill:#FE9E95;}
	.st11{fill:#F97653;}
	.st12{fill:#F26131;}
	.st13{fill:#F4683D;}
	.st14{fill:#F76F48;}
	.st15{fill:#989898;}
</style>
<g>
	<g>
		<path class="st15" d="M7.8,43.8c0-0.4,0.3-0.6,0.6-0.6h4.3c6.9,0,11.6,1.9,11.6,7.7c0,6.2-6.3,9-12.4,9c-0.9,0-1.1-0.3-1.1-0.6
			c0-0.4,0.2-0.5,0.7-0.5c5.8,0,11.7-2.1,11.7-8c0-5.2-4.2-6.5-10.5-6.5H8.9v22.3c0,0-0.1,0.3-0.6,0.3s-0.6-0.3-0.6-0.3V43.8z"/>
		<path class="st15" d="M44.3,43.4c0,0,0.1-0.3,0.7-0.3c0.4,0,0.6,0.1,0.6,0.3c0,0.1-0.2,0.4-0.2,0.4l-9.5,13.5v9.2
			c0,0-0.1,0.3-0.6,0.3s-0.6-0.3-0.6-0.3v-9.2l-9.5-13.5c0,0-0.2-0.2-0.2-0.4c0-0.1,0.1-0.3,0.6-0.3c0.6,0,0.7,0.3,0.7,0.3l9,12.7
			L44.3,43.4z"/>
		<path class="st15" d="M47.4,55.4c0,7.2,4.9,10.6,10.9,10.6c4.7,0,8-3.3,8-4.8v-4h-6c0,0-0.3-0.1-0.3-0.6c0-0.5,0.3-0.6,0.3-0.6
			h6.5c0.4,0,0.6,0.3,0.6,0.6v4.7c0,2.2-4.1,5.7-9.2,5.7c-6.3,0-12-4-12-11.7c0-8.9,6.3-12.7,12.2-12.7c4.9,0,8,2.8,8,6.2
			c0,1.6-0.7,2.5-1,2.5c-0.2,0-0.4-0.1-0.4-0.3c0-0.2,0.4-0.8,0.4-2c0-3.1-2.7-5.3-7-5.3C52.9,43.8,47.4,46.9,47.4,55.4z"/>
		<path class="st15" d="M71.8,55.4c0,7.2,4.9,10.6,10.9,10.6c4.7,0,8-3.3,8-4.8v-4h-6c0,0-0.3-0.1-0.3-0.6c0-0.5,0.3-0.6,0.3-0.6
			h6.5c0.4,0,0.6,0.3,0.6,0.6v4.7c0,2.2-4.1,5.7-9.2,5.7c-6.3,0-12-4-12-11.7c0-8.9,6.3-12.7,12.2-12.7c4.9,0,8,2.8,8,6.2
			c0,1.6-0.7,2.5-1,2.5c-0.2,0-0.4-0.1-0.4-0.3c0-0.2,0.4-0.8,0.4-2c0-3.1-2.7-5.3-7-5.3C77.3,43.8,71.8,46.9,71.8,55.4z"/>
	</g>
	<g>
		<g>
			<path class="st7" d="M71.4,6.3c-3.4,0.2-6.4,1.3-9.9,6.1c2.6,1.9,8,8.4,8,8.4C73.6,14.9,74,12.2,71.4,6.3z"/>
			<path class="st7" d="M24.9,6.3c3.4,0.2,6.4,1.3,9.9,6.1c-2.6,1.9-8,8.4-8,8.4C22.7,14.9,22.3,12.2,24.9,6.3z"/>
		</g>
		<g>
			<polygon class="st9" points="48.1,34.8 48.1,34.8 48.1,34.8 			"/>
			<rect x="48.1" y="34.8" transform="matrix(0.5841 -0.8117 0.8117 0.5841 -8.2109 53.4898)" class="st9" width="0" height="0"/>
			<polygon class="st9" points="48.1,34.8 48.1,34.8 48.1,34.8 48.1,34.8 			"/>
			<path class="st8" d="M70.2,18.7c-3.4-4.6-8.1-8.1-13.7-9.9l-8.4,25.9L70.2,18.7z"/>
			<polygon class="st9" points="48.2,34.8 48.1,34.8 48.1,34.8 			"/>
			<polygon class="st9" points="48.1,34.8 48.1,34.8 48.1,34.8 			"/>
			<path class="st9" d="M48.1,34.8L48.1,34.8L48.1,34.8L48.1,34.8l-22-16c-3.3,4.5-5.2,10-5.2,16L48.1,34.8L48.1,34.8z"/>
			<path class="st11" d="M48.1,34.8L48.1,34.8L48.1,34.8L48.1,34.8L48.1,34.8L48.1,34.8L48.1,34.8L48.1,34.8L48.1,34.8L48.1,34.8
				l-27.3,0.1c0,0,0,0,0,0h27.4h27.3c0-6.1-2-11.6-5.3-16.2L48.1,34.8z"/>
			<path class="st7" d="M48.1,34.8l8.4-25.9c-2.6-0.8-5.4-1.3-8.3-1.3c-3,0-5.8,0.5-8.5,1.4L48.1,34.8L48.1,34.8z"/>
			<path class="st10" d="M48.1,34.8L39.7,8.9c-5.5,1.8-10.3,5.3-13.6,9.9L48.1,34.8L48.1,34.8z"/>
		</g>
	</g>
</g>
</svg>
