<?xml version="1.0" encoding="utf-8"?>
<!-- Generator: Adobe Illustrator 24.2.0, SVG Export Plug-In . SVG Version: 6.00 Build 0)  -->
<svg version="1.1" id="Layer_1" xmlns="http://www.w3.org/2000/svg" xmlns:xlink="http://www.w3.org/1999/xlink" x="0px" y="0px"
	 viewBox="0 0 159 34.8" style="enable-background:new 0 0 159 34.8;" xml:space="preserve">
<style type="text/css">
	.st0{fill:none;stroke:#F05A26;stroke-width:2.6367;stroke-miterlimit:10;}
	.st1{fill:#F05A26;}
	.st2{fill:#FFFFFF;}
	.st3{fill:none;stroke:#F05A26;stroke-width:4;stroke-miterlimit:10;}
	.st4{fill:none;stroke:#FFFFFF;stroke-width:0.5;stroke-miterlimit:10;}
	.st5{fill:none;stroke:#FC917F;stroke-width:2.885;stroke-miterlimit:10;}
	.st6{fill:none;}
	.st7{fill:#FC917F;}
	.st8{fill:#FB8369;}
	.st9{fill:#FFABAB;}
	.st10{fill:#FE9E95;}
	.st11{fill:#F97653;}
	.st12{fill:#F26131;}
	.st13{fill:#F4683D;}
	.st14{fill:#F76F48;}
	.st15{fill:#989898;}
</style>
<g>
	<g>
		<path class="st15" d="M67.1,6.1c0-0.4,0.3-0.7,0.7-0.7h4.5c7.2,0,12.2,2,12.2,8c0,6.5-6.6,9.4-12.9,9.4c-0.9,0-1.1-0.3-1.1-0.6
			c0-0.4,0.2-0.5,0.7-0.5c6.1,0,12.2-2.2,12.2-8.4c0-5.5-4.4-6.8-11-6.8h-4v23.3c0,0-0.1,0.3-0.6,0.3c-0.5,0-0.6-0.3-0.6-0.3V6.1z"
			/>
		<path class="st15" d="M105.3,5.8c0,0,0.2-0.3,0.7-0.3c0.5,0,0.6,0.2,0.6,0.3c0,0.2-0.2,0.4-0.2,0.4l-9.9,14.1v9.6
			c0,0-0.1,0.3-0.6,0.3c-0.5,0-0.6-0.3-0.6-0.3v-9.6L85.4,6.1c0,0-0.2-0.2-0.2-0.4c0-0.1,0.2-0.3,0.6-0.3c0.6,0,0.7,0.3,0.7,0.3
			l9.4,13.3L105.3,5.8z"/>
		<path class="st15" d="M108.5,18.3c0,7.5,5.1,11.1,11.4,11.1c4.9,0,8.3-3.4,8.3-5v-4.2h-6.3c0,0-0.3-0.1-0.3-0.6
			c0-0.5,0.3-0.6,0.3-0.6h6.8c0.4,0,0.7,0.3,0.7,0.7v5c0,2.3-4.3,5.9-9.6,5.9c-6.6,0-12.5-4.2-12.5-12.2c0-9.3,6.5-13.3,12.7-13.3
			c5.1,0,8.4,2.9,8.4,6.4c0,1.7-0.8,2.6-1,2.6c-0.2,0-0.4-0.2-0.4-0.3c0-0.2,0.4-0.9,0.4-2.1c0-3.2-2.8-5.5-7.3-5.5
			C114.3,6.2,108.5,9.4,108.5,18.3z"/>
		<path class="st15" d="M134,18.3c0,7.5,5.1,11.1,11.4,11.1c4.9,0,8.3-3.4,8.3-5v-4.2h-6.3c0,0-0.3-0.1-0.3-0.6
			c0-0.5,0.3-0.6,0.3-0.6h6.8c0.4,0,0.7,0.3,0.7,0.7v5c0,2.3-4.3,5.9-9.6,5.9c-6.6,0-12.5-4.2-12.5-12.2c0-9.3,6.5-13.3,12.7-13.3
			c5.1,0,8.4,2.9,8.4,6.4c0,1.7-0.8,2.6-1,2.6c-0.2,0-0.4-0.2-0.4-0.3c0-0.2,0.4-0.9,0.4-2.1c0-3.2-2.8-5.5-7.3-5.5
			C139.7,6.2,134,9.4,134,18.3z"/>
	</g>
	<g>
		<g>
			<path class="st7" d="M51.2,4.1c-3.1,0.2-6,1.2-9.2,5.7c2.4,1.8,7.4,7.8,7.4,7.8C53.3,12.1,53.6,9.6,51.2,4.1z"/>
			<path class="st7" d="M7.9,4.1c3.1,0.2,6,1.2,9.2,5.7c-2.4,1.8-7.4,7.8-7.4,7.8C5.9,12.1,5.5,9.6,7.9,4.1z"/>
		</g>
		<g>
			<polygon class="st9" points="29.5,30.6 29.5,30.6 29.5,30.6 			"/>
			<rect x="29.5" y="30.6" transform="matrix(0.5841 -0.8117 0.8117 0.5841 -12.5758 36.6902)" class="st9" width="0" height="0"/>
			<polygon class="st9" points="29.5,30.7 29.5,30.7 29.5,30.6 29.5,30.6 			"/>
			<path class="st8" d="M50.1,15.7c-3.1-4.3-7.6-7.5-12.7-9.2l-7.8,24.1L50.1,15.7z"/>
			<polygon class="st9" points="29.6,30.7 29.5,30.6 29.5,30.7 			"/>
			<polygon class="st9" points="29.5,30.6 29.5,30.6 29.5,30.6 			"/>
			<path class="st9" d="M29.5,30.6L29.5,30.6L29.5,30.6L29.5,30.6L9,15.8c-3,4.2-4.9,9.3-4.9,14.9L29.5,30.6L29.5,30.6z"/>
			<path class="st11" d="M29.5,30.6L29.5,30.6L29.5,30.6L29.5,30.6L29.5,30.6L29.5,30.6L29.5,30.6L29.5,30.6L29.5,30.6L29.5,30.6
				L4.2,30.7c0,0,0,0,0,0h25.5H55c0-5.6-1.8-10.8-4.9-15L29.5,30.6z"/>
			<path class="st7" d="M29.5,30.6l7.8-24.1c-2.4-0.8-5.1-1.2-7.8-1.2c-2.8,0-5.4,0.4-7.9,1.3L29.5,30.6L29.5,30.6z"/>
			<path class="st10" d="M29.5,30.6L21.7,6.5c-5.1,1.7-9.5,4.9-12.7,9.2L29.5,30.6L29.5,30.6z"/>
		</g>
	</g>
</g>
</svg>
